<svg width="742" height="539" viewBox="0 0 742 539" fill="none" xmlns="http://www.w3.org/2000/svg">
<path d="M405.9 225.9L381 269.1H492C502.9 269.1 509.7 257.3 504.2 247.9L436.1 129.8L423.5 108.1C418.1 98.7 404.5 98.7 399 108.1L386.5 129.8L331.1 225.8L300.7 173H336.5L361.4 129.8H250.4C239.5 129.8 232.7 141.6 238.2 151L306.3 269L306.2 269.1H306.3V269V269.1L318.8 290.8C324.2 300.2 337.8 300.2 343.3 290.8L355.8 269.1L411.2 173.1L441.7 225.9H405.9Z" fill="url(#paint0_linear)"/>
<path d="M183.3 372.5C183.3 393.4 169.1 407.1 147.4 407.1H117.7V437.2H101.1V337.9H147.4C169.1 337.9 183.3 351.7 183.3 372.5ZM166.8 372.5C166.8 360.7 158.7 353.1 146.5 353.1H117.6V392.1H146.5C158.7 392.1 166.8 384.4 166.8 372.5Z" fill="#084564"/>
<path d="M230.5 337.9H247.1V437.2H230.5V337.9Z" fill="#084564"/>
<path d="M383.2 437.2H363.2L348.4 415.8L337.2 398.9L325.8 415.8L311 437.2H291.3L326.3 386.7L292.7 337.9H312.3L325.9 357.9L337.2 375.1L348.7 357.9L362.3 337.9H381.7L347.9 386.7L383.2 437.2Z" fill="#084564"/>
<path d="M503.4 417.8H491.8V437.2H475.2V417.8H420.4L418.4 402.5L472.7 337.9H491.7V402.5H503.3V417.8H503.4ZM437 402.6H475.2V357.6L437 402.6Z" fill="#084564"/>
<path d="M641.1 387.6C641.1 417.4 621 437.3 591 437.3H553V338H591C621 337.9 641.1 357.8 641.1 387.6ZM624.4 387.6C624.4 367.2 610.8 353.3 591.1 353.3H569.7V422H591C610.9 421.9 624.4 408 624.4 387.6Z" fill="#084564"/>
<defs>
<linearGradient id="paint0_linear" x1="308.706" y1="346.691" x2="477.361" y2="83.1415" gradientUnits="userSpaceOnUse">
<stop stop-color="#2AD563"/>
<stop offset="1" stop-color="#00FF55"/>
</linearGradient>
</defs>
</svg>
